<svg xmlns="http://www.w3.org/2000/svg" viewBox="0 0 512 512" width="512" height="512">
  <defs>
    <radialGradient id="bg" cx="50%" cy="42%" r="70%">
      <stop offset="0%" stop-color="#8b2240"/>
      <stop offset="55%" stop-color="#6b1a2e"/>
      <stop offset="100%" stop-color="#4a0f1f"/>
    </radialGradient>
    <linearGradient id="gold" x1="0%" y1="0%" x2="100%" y2="100%">
      <stop offset="0%" stop-color="#f5e0a3"/>
      <stop offset="45%" stop-color="#e8d08a"/>
      <stop offset="100%" stop-color="#c9a94e"/>
    </linearGradient>
    <linearGradient id="goldRing" x1="0%" y1="0%" x2="100%" y2="100%">
      <stop offset="0%" stop-color="#e8d08a"/>
      <stop offset="100%" stop-color="#9a7a28"/>
    </linearGradient>
  </defs>
  <rect width="512" height="512" rx="112" fill="url(#bg)"/>
  <circle cx="256" cy="256" r="215" fill="none" stroke="url(#goldRing)" stroke-width="6" stroke-dasharray="4 14" stroke-linecap="round" opacity="0.65"/>
  <circle cx="256" cy="256" r="188" fill="none" stroke="url(#goldRing)" stroke-width="3" opacity="0.55"/>
  <!-- lotus petals -->
  <g opacity="0.9">
    <path d="M256 430 C 205 400 185 350 200 300 C 225 340 240 370 256 430 Z" fill="url(#gold)" opacity="0.55"/>
    <path d="M256 430 C 307 400 327 350 312 300 C 287 340 272 370 256 430 Z" fill="url(#gold)" opacity="0.55"/>
    <path d="M180 380 C 150 345 148 300 172 262 C 190 305 195 340 180 380 Z" fill="url(#gold)" opacity="0.4"/>
    <path d="M332 380 C 362 345 364 300 340 262 C 322 305 317 340 332 380 Z" fill="url(#gold)" opacity="0.4"/>
  </g>
  <!-- Om symbol -->
  <text x="256" y="278" font-family="Noto Sans Devanagari, Tiro Devanagari Sanskrit, serif" font-size="230" text-anchor="middle" fill="url(#gold)" style="paint-order:stroke" stroke="#4a0f1f" stroke-width="2">&#2384;</text>
</svg>
